<?xml version="1.0" encoding="UTF-8" standalone="no"?>
<svg
   xmlns:dc="http://purl.org/dc/elements/1.1/"
   xmlns:cc="http://creativecommons.org/ns#"
   xmlns:rdf="http://www.w3.org/1999/02/22-rdf-syntax-ns#"
   xmlns:svg="http://www.w3.org/2000/svg"
   xmlns="http://www.w3.org/2000/svg"
   xmlns:sodipodi="http://sodipodi.sourceforge.net/DTD/sodipodi-0.dtd"
   xmlns:inkscape="http://www.inkscape.org/namespaces/inkscape"
   version="1.1"
   id="svg833"
   width="303.85999"
   height="303.85999"
   viewBox="0 0 303.85999 303.85999"
   sodipodi:docname="nlogo.svg"
   inkscape:version="1.0.2 (e86c870879, 2021-01-15, custom)">
  <metadata
     id="metadata839">
    <rdf:RDF>
      <cc:Work
         rdf:about="">
        <dc:format>image/svg+xml</dc:format>
        <dc:type
           rdf:resource="http://purl.org/dc/dcmitype/StillImage" />
        <dc:title></dc:title>
      </cc:Work>
    </rdf:RDF>
  </metadata>
  <defs
     id="defs837" />
  <sodipodi:namedview
     pagecolor="#ffffff"
     bordercolor="#666666"
     borderopacity="1"
     objecttolerance="10"
     gridtolerance="10"
     guidetolerance="10"
     inkscape:pageopacity="0"
     inkscape:pageshadow="2"
     inkscape:window-width="1920"
     inkscape:window-height="986"
     id="namedview835"
     showgrid="false"
     inkscape:zoom="1.8867925"
     inkscape:cx="155.40999"
     inkscape:cy="121.33625"
     inkscape:window-x="-11"
     inkscape:window-y="-11"
     inkscape:window-maximized="1"
     inkscape:current-layer="g841" />
  <g
     inkscape:groupmode="layer"
     inkscape:label="Image"
     id="g841"
     transform="translate(-51.590012,-54.410004)">
    <path
       style="fill:#000000"
       d="m 105.43251,260.51 c -0.355,-5.0875 -0.91591,-12.5125 -1.24647,-16.5 -0.5162,-6.22688 -0.37544,-7.25 0.99742,-7.25 0.91523,0 1.88379,1.1754 2.26606,2.75 1.22727,5.05524 5.07457,12.72631 7.49908,14.95227 4.24961,3.90162 8.94273,5.11587 22.65375,5.86121 C 150.82,261.042 150.82,261.042 150.82,231.77055 c 0,-29.27145 0,-29.27145 -13.35359,-28.81856 -17.11135,0.58033 -19.25742,1.60474 -22.14641,10.57142 -1.43941,4.46757 -2.49051,6.21156 -3.75,6.22204 -1.60239,0.0133 -1.75,-1.50372 -1.75,-17.98545 0,-16.53555 0.14362,-18 1.76528,-18 1.21513,0 2.31929,1.55983 3.54293,5.00507 2.73485,7.70017 4.50788,8.43264 21.39502,8.83869 14.29677,0.34377 14.29677,0.34377 14.29677,-21.6611 0,-22.00487 0,-22.00487 -3.04547,-24.56747 -2.72277,-2.29106 -6.67435,-3.82078 -12.37166,-4.78929 -1.05443,-0.17924 -2.10443,-0.8884 -2.33334,-1.5759 -0.31748,-0.95353 2.3904,-1.24671 11.41714,-1.23612 11.83333,0.0139 11.83333,0.0139 35.33333,26.98612 23.5,26.97223 23.5,26.97223 42.75,26.98612 19.25,0.0139 19.25,0.0139 19.25,-24.62712 0,-24.641 0,-24.641 -13.21765,-23.92248 -13.71102,0.74534 -18.40414,1.95959 -22.65375,5.86121 -2.42451,2.22596 -6.27181,9.89703 -7.49908,14.95227 -0.38227,1.5746 -1.35083,2.75 -2.26606,2.75 -1.37286,0 -1.51362,-1.02312 -0.99742,-7.25 0.33056,-3.9875 0.89147,-11.4125 1.24647,-16.5 0.6961,-9.97578 1.35889,-10.82698 5.24245,-6.73272 2.35496,2.48272 2.35496,2.48272 44.67327,2.48272 42.31832,0 42.31832,0 45.20328,-2.42753 1.58673,-1.33515 3.36343,-2.12265 3.94823,-1.75 0.58481,0.37264 1.36232,5.17753 1.72782,10.67753 0.3655,5.5 0.92517,12.3625 1.24371,15.25 0.51455,4.66419 0.37105,5.24985 -1.28605,5.24861 -1.41565,-0.001 -2.28793,-1.43987 -3.61899,-5.9695 -1.9985,-6.80092 -6.58952,-12.64786 -11.56269,-14.72578 -1.96076,-0.81926 -8.90674,-1.65004 -16.76562,-2.00527 -13.41792,-0.6065 -13.41792,-0.6065 -13.41792,24.04772 0,24.65422 0,24.65422 15.04545,24.65422 14.50894,0 15.13025,-0.0848 17.42325,-2.37779 1.30778,-1.30778 2.93356,-4.23278 3.61283,-6.5 0.86598,-2.89038 1.7854,-4.12221 3.07676,-4.12221 1.72074,0 1.84171,1.18234 1.84171,18 0,16.48173 -0.14761,17.99877 -1.75,17.98545 -1.25949,-0.0105 -2.31059,-1.75447 -3.75,-6.22204 -2.88764,-8.96249 -5.03936,-9.99123 -22.10855,-10.57014 -13.31572,-0.4516 -13.31572,-0.4516 -13.60359,21.92756 C 251.32,248.26 251.32,248.26 254.20714,251.54821 c 3.56225,4.0571 5.74226,5.27085 12.05001,6.70901 2.71543,0.61911 5.11543,1.66051 5.33333,2.31422 0.29248,0.87744 -3.0064,1.18856 -12.60265,1.18856 -12.99883,0 -12.99883,0 -38.33333,-28.95599 -25.3345,-28.956 -25.3345,-28.956 -42.5845,-29 -17.25,-0.044 -17.25,-0.044 -17.25,28.61021 0,28.65422 0,28.65422 13.41792,28.04772 7.85888,-0.35523 14.80486,-1.18601 16.76562,-2.00527 4.86981,-2.03473 9.43946,-7.79066 11.44028,-14.41016 2.01763,-6.67511 2.95055,-8.11214 4.35477,-6.70792 1.28425,1.28425 -0.86166,30.67003 -2.30752,31.59894 -0.58003,0.37265 -2.35283,-0.41485 -3.93956,-1.75 -2.88496,-2.42753 -2.88496,-2.42753 -45.20328,-2.42753 -42.31831,0 -42.31831,0 -44.67327,2.48272 -3.88356,4.09426 -4.54635,3.24306 -5.24245,-6.73272 z m 136.05171,-55.41912 c -0.21071,-0.2107 -7.37718,-0.25885 -15.92549,-0.10699 -15.5424,0.27611 -15.5424,0.27611 0.10944,18.18233 15.65183,17.90622 15.65183,17.90622 15.92549,0.10699 0.15051,-9.78958 0.10126,-17.97162 -0.10944,-18.18233 z M 175.7582,181.76 c -7.7884,-8.8 -14.33565,-16 -14.54946,-16 -0.21381,0 -0.38874,7.2 -0.38874,16 0,16 0,16 14.54945,16 14.54946,0 14.54946,0 0.38875,-16 z"
       id="path1406"
       sodipodi:nodetypes="ssssssssssssssssssssssssssssssssssssssssssssssssssssssssssssssssssssssssss" />
    <circle
       style="fill:none;fill-opacity:1;stroke:#000000;stroke-width:12;stroke-linejoin:round;stroke-miterlimit:4;stroke-dasharray:none;stroke-opacity:0.590164;paint-order:stroke fill markers"
       id="path1409"
       cx="203.64"
       cy="205.11002"
       r="129.82643" />
    <circle
       style="fill:none;stroke:#000000;stroke-width:6;stroke-linejoin:round;stroke-miterlimit:4;stroke-dasharray:none;paint-order:stroke fill markers"
       id="path1417"
       cx="203.52"
       cy="206.34"
       r="148.92999" />
  </g>
</svg>
